<svg height="44" viewBox="0 0 52 44" width="52" xmlns="http://www.w3.org/2000/svg"><path d="m28.83 9.197c3.518-3.715 7.01-5.587 9.255-6.497-2.463-3.35-9.153-2.841-15.08 1.19-6.005 4.088-8.944 10.237-6.564 13.736.018.026.04.046.058.07 2.9-1.023 7.436-3.33 12.33-8.498zm3.939 9.044c6.006-4.086 8.944-10.235 6.564-13.734-.032-.046-.072-.084-.105-.128-2.246.91-5.738 2.782-9.256 6.497-4.895 5.167-9.432 7.474-12.33 8.499 2.427 3.416 9.165 2.922 15.127-1.134zm5.809 13.986c-3.36-2.247-5.28-4.718-6.287-6.345-2.281 2.362-.998 7.504 2.928 11.583 3.977 4.134 9.155 5.608 11.563 3.29.018-.017.03-.037.048-.055-1.182-2.121-3.58-5.348-8.252-8.473zm6.906-4.454c-3.977-4.135-9.155-5.607-11.563-3.29-.033.03-.056.067-.087.1 1.007 1.627 2.928 4.096 6.287 6.343 4.672 3.127 7.07 6.353 8.252 8.475 2.339-2.343 1.06-7.524-2.889-11.628zm-34.177 5.101c-5.026-.642-8.564-2.34-10.605-3.603-1.24 3.928 3.079 8.98 9.767 11.362 6.777 2.413 13.412 1.169 14.817-2.78.011-.029.014-.058.024-.088-2.514-1.718-7.01-3.997-14.003-4.89zm4.929-8.436c-6.777-2.414-13.411-1.17-14.817 2.78-.019.051-.026.105-.043.158 2.042 1.264 5.579 2.96 10.605 3.603 6.994.893 11.49 3.173 14.003 4.892 1.314-3.937-3.02-9.037-9.748-11.433z" fill="none" stroke="#231f20" stroke-linecap="round" stroke-linejoin="round" stroke-width="1.25" transform="translate(1 1)"/></svg>