<svg height="48" viewBox="0 0 48 48" width="48" xmlns="http://www.w3.org/2000/svg"><g fill="none" fill-rule="evenodd"><path d="m41.6 44.652c.31.07.62-.115.705-.422l3.926-19.71s-.784-.373-.657-.938c.075-.33.43-.473.715-.534.225-.05.406-.217.457-.442l.482-2.13c.073-.321-.13-.64-.45-.713l-7.146-1.616-.13-.03-7.148-1.616c-.32-.073-.639.129-.712.45l-.481 2.13c-.052.225.04.454.223.596.23.177.49.46.414.79-.128.564-.996.564-.996.564l-4.996 19.467c-.056.313.144.614.454.685z" fill="#fefefe"/><path d="m41.6 44.652c.31.07.62-.115.705-.422l3.926-19.71s-.784-.373-.657-.938c.075-.33.43-.473.715-.534.225-.05.406-.217.457-.442l.482-2.13c.073-.321-.13-.64-.45-.713l-7.146-1.616-.13-.03-7.148-1.616c-.32-.073-.639.129-.712.45l-.481 2.13c-.052.225.04.454.223.596.23.177.49.46.414.79-.128.564-.996.564-.996.564l-4.996 19.467c-.056.313.144.614.454.685z" stroke="#020303" stroke-linecap="round" stroke-linejoin="round" stroke-width="1.5"/><path d="m38.965 40.408-8.442-1.91c-.324-.073-.525-.397-.447-.72l3.245-13.344c.075-.317.392-.512.71-.441l8.01 1.812c.318.071.52.384.452.703l-2.814 13.442c-.07.326-.39.531-.714.458" fill="#fefefe"/><path d="m38.965 40.408-8.442-1.91c-.324-.073-.525-.397-.447-.72l3.245-13.344c.075-.317.392-.512.71-.441l8.01 1.812c.318.071.52.384.452.703l-2.814 13.442c-.07.326-.39.531-.714.458z" stroke="#020303" stroke-linecap="round" stroke-linejoin="round" stroke-width="1.5"/><path d="m1.937.693c-.097-.085-.218-.15-.352-.18-.433-.098-.863.173-.96.606-.099.433.173.862.605.96s.862-.173.96-.606l.114.027 9.825 2.221" fill="#fefefe" transform="translate(32.219178 19.524953)"/><path d="m1.937.693c-.097-.085-.218-.15-.352-.18-.433-.098-.863.173-.96.606-.099.433.173.862.605.96s.862-.173.96-.606l.114.027 9.825 2.221" stroke="#020303" stroke-linecap="round" stroke-linejoin="round" stroke-width="1.5" transform="translate(32.219178 19.524953)"/><path d="m31.753 39.083c.317.002.581-.246.597-.564l-.407-20.092s-.846-.197-.843-.776c.002-.338.318-.554.582-.675.21-.098.35-.299.352-.53l.011-2.184c.002-.329-.263-.597-.591-.599l-7.327-.04-.134-.001-7.327-.041c-.33-.001-.597.264-.599.592l-.012 2.184c-.002.231.137.435.346.534.263.123.577.343.575.682-.003.579-.852.766-.852.766l-.69 20.086c.013.318.274.568.591.57z" fill="#fefefe"/><path d="m31.753 39.083c.317.002.581-.246.597-.564l-.407-20.092s-.846-.197-.843-.776c.002-.338.318-.554.582-.675.21-.098.35-.299.352-.53l.011-2.184c.002-.329-.263-.597-.591-.599l-7.327-.04-.134-.001-7.327-.041c-.33-.001-.597.264-.599.592l-.012 2.184c-.002.231.137.435.346.534.263.123.577.343.575.682-.003.579-.852.766-.852.766l-.69 20.086c.013.318.274.568.591.57z" stroke="#020303" stroke-linecap="round" stroke-linejoin="round" stroke-width="1.5"/><path d="m28.266 35.505-8.655-.048c-.332-.002-.598-.275-.592-.607l.297-13.73c.006-.326.273-.585.598-.583l8.214.046c.325.002.59.263.592.589l.144 13.732c.003.333-.266.603-.598.601" fill="#fefefe"/><path d="m28.266 35.505-8.655-.048c-.332-.002-.598-.275-.592-.607l.297-13.73c.006-.326.273-.585.598-.583l8.214.046c.325.002.59.263.592.589l.144 13.732c.003.333-.266.603-.598.601z" stroke="#020303" stroke-linecap="round" stroke-linejoin="round" stroke-width="1.5"/><path d="m1.472.586c-.114-.062-.245-.099-.384-.1-.443-.001-.804.356-.807.799-.002.444.355.805.798.807.443.003.805-.354.807-.798h.117l10.074.057" fill="#fefefe" transform="translate(17.753425 16.237282)"/><path d="m1.472.586c-.114-.062-.245-.099-.384-.1-.443-.001-.804.356-.807.799-.002.444.355.805.798.807.443.003.805-.354.807-.798h.117l10.074.057" stroke="#020303" stroke-linecap="round" stroke-linejoin="round" stroke-width="1.5" transform="translate(17.753425 16.237282)"/><path d="m21.316 41.054c.31-.068.513-.368.46-.681l-4.799-19.515s-.868-.007-.992-.572c-.072-.33.19-.611.42-.787.184-.14.276-.368.228-.594l-.467-2.134c-.07-.32-.388-.525-.709-.454l-7.158 1.565-.13.029-7.16 1.565c-.32.07-.524.387-.454.708l.467 2.135c.05.225.229.392.454.444.285.063.639.21.711.54.124.565-.664.934-.664.934l3.727 19.749c.083.308.392.496.703.427l15.364-3.36z" fill="#fefefe"/><path d="m21.316 41.054c.31-.068.513-.368.46-.681l-4.799-19.515s-.868-.007-.992-.572c-.072-.33.19-.611.42-.787.184-.14.276-.368.228-.594l-.467-2.134c-.07-.32-.388-.525-.709-.454l-7.158 1.565-.13.029-7.16 1.565c-.32.07-.524.387-.454.708l.467 2.135c.05.225.229.392.454.444.285.063.639.21.711.54.124.565-.664.934-.664.934l3.727 19.749c.083.308.392.496.703.427l15.364-3.36z" stroke="#020303" stroke-linecap="round" stroke-linejoin="round" stroke-width="1.5"/><path d="m17.13 38.327-8.454 1.849c-.326.07-.645-.137-.711-.464l-2.718-13.46c-.065-.32.14-.631.456-.701l8.024-1.754c.319-.07.634.129.707.445l3.149 13.367c.076.325-.129.647-.453.718" fill="#fefefe"/><path d="m17.13 38.327-8.454 1.849c-.326.07-.645-.137-.711-.464l-2.718-13.46c-.065-.32.14-.631.456-.701l8.024-1.754c.319-.07.634.129.707.445l3.149 13.367c.076.325-.129.647-.453.718z" stroke="#020303" stroke-linecap="round" stroke-linejoin="round" stroke-width="1.5"/><path d="m1.588 1.897c-.125-.037-.26-.043-.397-.014-.433.095-.707.522-.612.956.095.433.522.707.955.612s.707-.523.613-.955l.113-.025 9.842-2.152" fill="#fefefe" transform="translate(2.630137 20.182488)"/><path d="m1.588 1.897c-.125-.037-.26-.043-.397-.014-.433.095-.707.522-.612.956.095.433.522.707.955.612s.707-.523.613-.955l.113-.025 9.842-2.152" stroke="#020303" stroke-linecap="round" stroke-linejoin="round" stroke-width="1.5" transform="translate(2.630137 20.182488)"/><path d="m33.048 31.882c-1.918-1.945-5.079-1.967-7.024-.049l-2.112 2.083-2.082-2.112c-1.918-1.945-5.08-1.966-7.024-.048-1.945 1.918-1.967 5.078-.049 7.023l2.083 2.112 6.975 7.072 7.073-6.974 2.111-2.083c1.945-1.918 1.967-5.08.049-7.024" fill="#fefefe"/><path d="m33.048 31.882c-1.918-1.945-5.079-1.967-7.024-.049l-2.112 2.083-2.082-2.112c-1.918-1.945-5.08-1.966-7.024-.048-1.945 1.918-1.967 5.078-.049 7.023l2.083 2.112 6.975 7.072 7.073-6.974 2.111-2.083c1.945-1.918 1.967-5.08.049-7.024zm-9.156-26.067v-5.322m-11.05 7.783-2.252-4.822m-6.018 10.412-4.079-3.417m34.45-2.173 2.251-4.822m6.721 10.412 4.08-3.417" stroke="#020303" stroke-linecap="round" stroke-linejoin="round" stroke-width="1.5"/></g></svg>