<svg height="31" viewBox="0 0 57 31" width="57" xmlns="http://www.w3.org/2000/svg"><g fill="none" fill-rule="evenodd"><path d="m46.896 6.273c1.444 0 2.736.883 3.275 2.214l.07.184 1.258 3.672 4.156 2.253c.702.38 1.157 1.093 1.214 1.883l.006.17v8.667c0 1.232-.952 2.244-2.16 2.326l-.16.005h-2.868v-2.205h2.868c.05 0 .093-.034.11-.085l.005-.041v-8.667c0-.032-.011-.063-.03-.086l-.035-.028-4.911-2.663-1.54-4.486c-.172-.502-.617-.851-1.13-.902l-.128-.006h-5.902v-2.205z" fill="#000" fill-rule="nonzero"/><path d="m44.659 26.545h-17.192z" stroke="#000" stroke-width="2.205"/><path d="m24.042 22.216c-2.292 0-4.147 1.872-4.147 4.177 0 2.303 1.855 4.176 4.147 4.176 2.293 0 4.148-1.873 4.148-4.176 0-2.305-1.855-4.177-4.148-4.177zm24 0c-2.292 0-4.147 1.872-4.147 4.177 0 2.303 1.855 4.176 4.147 4.176 2.293 0 4.148-1.873 4.148-4.176 0-2.305-1.855-4.177-4.148-4.177zm-24 2.205c1.07 0 1.943.88 1.943 1.972 0 1.09-.873 1.971-1.943 1.971s-1.942-.881-1.942-1.971c0-1.092.872-1.972 1.942-1.972zm24 0c1.07 0 1.943.88 1.943 1.972 0 1.09-.873 1.971-1.943 1.971s-1.942-.881-1.942-1.971c0-1.092.872-1.972 1.942-1.972zm-30.422-16.155c.61 0 1.103.493 1.103 1.102 0 .569-.43 1.037-.982 1.096l-.12.007h-8.324c-.609 0-1.103-.494-1.103-1.103 0-.568.43-1.036.983-1.096l.12-.006h8.322zm1.734 4.421c.61 0 1.103.493 1.103 1.102 0 .569-.43 1.037-.983 1.096l-.12.007h-17.354c-.609 0-1.103-.494-1.103-1.103 0-.568.43-1.036.983-1.096l.12-.006zm-3.239 4.421c.609 0 1.103.494 1.103 1.102 0 .569-.43 1.037-.983 1.096l-.12.007h-8.277c-.609 0-1.102-.494-1.102-1.103 0-.568.43-1.036.982-1.096l.12-.006z" fill="#000" fill-rule="nonzero"/><path d="m39.788.897c1.23 0 2.233.961 2.314 2.173l.006.159v23.317c0 .608-.494 1.102-1.103 1.102-.568 0-1.036-.43-1.096-.982l-.007-.12v-23.317c0-.058-.034-.104-.079-.12l-.035-.006h-23.14c-.05 0-.093.034-.11.085l-.005.041v2.382c0 .608-.494 1.102-1.103 1.102-.568 0-1.036-.43-1.096-.982l-.006-.12v-2.382c0-1.232.952-2.244 2.16-2.326l.16-.006z" fill="#000" fill-rule="nonzero"/><path d="m20.017 26.545h-3.369c-.672 0-1.218-.548-1.218-1.23v-3.53" stroke="#000" stroke-linecap="round" stroke-width="2.205"/></g></svg>